<svg xmlns="http://www.w3.org/2000/svg" version="1.1" xmlns:xlink="http://www.w3.org/1999/xlink" xmlns:svgjs="http://svgjs.com/svgjs" viewBox="0 0 140 140" width="140" height="140"><g transform="matrix(5.833333333333333,0,0,5.833333333333333,0,0)"><path d="M1.000 12.000 A11.000 11.000 0 1 0 23.000 12.000 A11.000 11.000 0 1 0 1.000 12.000 Z" fill="none" stroke="#000000" stroke-linecap="round" stroke-linejoin="round"></path><path d="M19,11a1,1,0,0,0-1-1H14V6a1,1,0,0,0-1-1H11a1,1,0,0,0-1,1v4H6a1,1,0,0,0-1,1v2a1,1,0,0,0,1,1h4v4a1,1,0,0,0,1,1h2a1,1,0,0,0,1-1V14h4a1,1,0,0,0,1-1Z" fill="none" stroke="#000000" stroke-linecap="round" stroke-linejoin="round"></path></g></svg>